<svg xmlns="http://www.w3.org/2000/svg" xmlns:xlink="http://www.w3.org/1999/xlink" version="1.1" width="256" height="256" viewBox="0 0 256 256" xml:space="preserve">

<defs>
</defs>
<g style="stroke: none; stroke-width: 0; stroke-dasharray: none; stroke-linecap: butt; stroke-linejoin: miter; stroke-miterlimit: 10; fill: none; fill-rule: nonzero; opacity: 1;" transform="translate(1.4065934065934016 1.4065934065934016) scale(2.81 2.81)" >
	<path d="M 45 90 c -1.415 0 -2.725 -0.748 -3.444 -1.966 l -4.385 -7.417 C 28.167 65.396 19.664 51.02 16.759 45.189 c -2.112 -4.331 -3.175 -8.955 -3.175 -13.773 C 13.584 14.093 27.677 0 45 0 c 17.323 0 31.416 14.093 31.416 31.416 c 0 4.815 -1.063 9.438 -3.157 13.741 c -0.025 0.052 -0.053 0.104 -0.08 0.155 c -2.961 5.909 -11.41 20.193 -20.353 35.309 l -4.382 7.413 C 47.725 89.252 46.415 90 45 90 z" style="stroke: none; stroke-width: 1; stroke-dasharray: none; stroke-linecap: butt; stroke-linejoin: miter; stroke-miterlimit: 10; fill: rgb(16,153,91); fill-rule: nonzero; opacity: 1;" transform=" matrix(1 0 0 1 0 0) " stroke-linecap="round" />
	<path d="M 66.61 30.31 c 0 11.916 -9.695 21.61 -21.61 21.61 c -11.916 0 -21.611 -9.694 -21.611 -21.61 C 37.797 26.958 52.204 26.958 66.61 30.31 z" style="stroke: none; stroke-width: 1; stroke-dasharray: none; stroke-linecap: butt; stroke-linejoin: miter; stroke-miterlimit: 10; fill: rgb(85,212,133); fill-rule: nonzero; opacity: 1;" transform=" matrix(1 0 0 1 0 0) " stroke-linecap="round" />
	<path d="M 66.61 30.31 C 66.61 18.394 56.915 8.7 45 8.7 c -11.916 0 -21.611 9.694 -21.611 21.61 H 66.61 z" style="stroke: none; stroke-width: 1; stroke-dasharray: none; stroke-linecap: butt; stroke-linejoin: miter; stroke-miterlimit: 10; fill: rgb(188,230,245); fill-rule: nonzero; opacity: 1;" transform=" matrix(1 0 0 1 0 0) " stroke-linecap="round" />
	<polygon points="45,18.16 50.78,28.18 56.56,38.19 45,38.19 33.44,38.19 39.22,28.18 " style="stroke: none; stroke-width: 1; stroke-dasharray: none; stroke-linecap: butt; stroke-linejoin: miter; stroke-miterlimit: 10; fill: rgb(226,79,79); fill-rule: nonzero; opacity: 1;" transform="  matrix(1 0 0 1 0 0) "/>
	<polygon points="45,18.16 43.38,38.19 46.62,38.19 " style="stroke: none; stroke-width: 1; stroke-dasharray: none; stroke-linecap: butt; stroke-linejoin: miter; stroke-miterlimit: 10; fill: rgb(203,67,67); fill-rule: nonzero; opacity: 1;" transform="  matrix(1 0 0 1 0 0) "/>
</g>
</svg>